{"title":"Scourge 2008 DVDRip Xvid BigPerm LKRG","uid":6274583,"size":1118375276,"categoryP":"video","categoryS":"movies","magnet":"?xt=urn:btih:30f20cb11a05d0bbc0c7ffd2a33200227117eb19&amp;dn=Scourge+2008+DVDRip+Xvid+BigPerm+LKRG&amp;tr=udp%3A%2F%2Ftracker.openbittorrent.com%3A80&amp;tr=udp%3A%2F%2Fopen.demonii.com%3A1337&amp;tr=udp%3A%2F%2Ftracker.coppersurfer.tk%3A6969&amp;tr=udp%3A%2F%2Fexodus.desync.com%3A6969","seeders":1,"leechers":0,"uploader":"hiest","files":-1,"time":1301208701,"description":" ######                 ######                       \n #     # #  ####        #     # ###### #####  #    # \n #     # # #    #       #     # #      #    # ##  ## \n ######  # #      ##### ######  #####  #    # # ## # \n #     # # #  ###       #       #      #####  #    # \n #     # # #    #       #       #      #   #  #    # \n ######  #  ####        #       ###### #    # #    # \n\nPlot\n\nAn ancient pestilence called The Scourge has been set free in a small town after being\nentombed in a church's masonry for a century and a half...\n\nFormat : AVI\nFormat/Info : Audio Video Interleave\nFormat profile : OpenDML\nFile size : 1.04 GiB\nDuration : 1h 29mn\nOverall bit rate : 1 658 Kbps\n\nVideo\nID : 0\nFormat : MPEG-4 Visual\nFormat profile : Advanced Simple@L5\nFormat settings, BVOP : Yes\nFormat settings, QPel : No\nFormat settings, GMC : No warppoints\nFormat settings, Matrix : Default (H.263)\nCodec ID : XVID\nCodec ID/Hint : XviD\nDuration : 1h 29mn\nBit rate : 1 204 Kbps\nWidth : 704 pixels\nHeight : 396 pixels\nDisplay aspect ratio : 16:9\nFrame rate : 23.976 fps\nColor space : YUV\nChroma subsampling : 4:2:0\nBit depth : 8 bits\nScan type : Progressive\nCompression mode : Lossy\nBits/(Pixel*Frame) : 0.180\nStream size : 774 MiB (73%)\nWriting library : XviD 1.2.1 (UTC 2008-12-04)\n\nAudio\nID : 1\nFormat : AC-3\nFormat/Info : Audio Coding 3\nMode extension : CM (complete main)\nCodec ID : 2000\nDuration : 1h 29mn\nBit rate mode : Constant\nBit rate : 448 Kbps\nChannel(s) : 6 channels\nChannel positions : Front: L C R, Side: L R, LFE\nSampling rate : 48.0 KHz\nBit depth : 16 bits\nCompression mode : Lossy\nVideo delay : 42ms\nStream size : 288 MiB (27%)\nAlignment : Split accross interleaves\nInterleave, duration : 500 ms (11.99 video frames)\nInterleave, preload duration : 500 ms\nLanguage : English\n &lt;a href=&quot;\nhttp://www.imdb.com/title/tt1137477/&quot; rel=&quot;nofollow&quot; target=&quot;_NEW&quot;&gt;\nhttp://www.imdb.com/title/tt1137477/&lt;/a&gt;\n\n\n\n\n\n\n================================== &lt;a href=&quot;\nhttp://thepiratebay.se/user/hiest&quot; rel=&quot;nofollow&quot; target=&quot;_NEW&quot;&gt;\nhttp://thepiratebay.se/user/hiest&lt;/a&gt;\n==================================\n\n\n\n\n\n\nScreen Shots:\n &lt;a href=&quot;\nhttp://www.shotpix.com/images/49937078271896094586.png&quot; rel=&quot;nofollow&quot; target=&quot;_NEW&quot;&gt;\nhttp://www.shotpix.com/images/49937078271896094586.png&lt;/a&gt;\n &lt;a href=&quot;\nhttp://www.shotpix.com/images/28325166936801796252.png&quot; rel=&quot;nofollow&quot; target=&quot;_NEW&quot;&gt;\nhttp://www.shotpix.com/images/28325166936801796252.png&lt;/a&gt;\n &lt;a href=&quot;\nhttp://www.shotpix.com/images/12996804765833016168.png&quot; rel=&quot;nofollow&quot; target=&quot;_NEW&quot;&gt;\nhttp://www.shotpix.com/images/12996804765833016168.png&lt;/a&gt;\n &lt;a href=&quot;\nhttp://www.shotpix.com/images/74492633803127386370.png&quot; rel=&quot;nofollow&quot; target=&quot;_NEW&quot;&gt;\nhttp://www.shotpix.com/images/74492633803127386370.png&lt;/a&gt;\n\n ######                 ######                       \n #     # #  ####        #     # ###### #####  #    # \n #     # # #    #       #     # #      #    # ##  ## \n ######  # #      ##### ######  #####  #    # # ## # \n #     # # #  ###       #       #      #####  #    # \n #     # # #    #       #       #      #   #  #    # \n ######  #  ####        #       ###### #    # #    # ","torrent":{"xt":"urn:btih:30f20cb11a05d0bbc0c7ffd2a33200227117eb19","amp;dn":"Scourge+2008+DVDRip+Xvid+BigPerm+LKRG","amp;tr":["udp%3A%2F%2Ftracker.openbittorrent.com%3A80","udp%3A%2F%2Fopen.demonii.com%3A1337","udp%3A%2F%2Ftracker.coppersurfer.tk%3A6969","udp%3A%2F%2Fexodus.desync.com%3A6969"],"infoHash":"30f20cb11a05d0bbc0c7ffd2a33200227117eb19","infoHashBuffer":{"type":"Buffer","data":[48,242,12,177,26,5,208,187,192,199,255,210,163,50,0,34,113,23,235,25]},"announce":[],"urlList":[]}}